<?xml version="1.0" encoding="UTF-8" standalone="no"?>
<!-- Created with Inkscape (http://www.inkscape.org/) -->

<svg
   xmlns:dc="http://purl.org/dc/elements/1.1/"
   xmlns:cc="http://creativecommons.org/ns#"
   xmlns:rdf="http://www.w3.org/1999/02/22-rdf-syntax-ns#"
   xmlns:svg="http://www.w3.org/2000/svg"
   xmlns="http://www.w3.org/2000/svg"
   xmlns:sodipodi="http://sodipodi.sourceforge.net/DTD/sodipodi-0.dtd"
   xmlns:inkscape="http://www.inkscape.org/namespaces/inkscape"
   width="350"
   height="350"
   viewBox="0 0 350 350"
   id="svg2"
   version="1.1"
   inkscape:version="0.91 r13725"
   inkscape:export-filename="/home/geoff/Downloads/cage-vec-16.png"
   inkscape:export-xdpi="4.1142859"
   inkscape:export-ydpi="4.1142859"
   sodipodi:docname="cage-vec.svg">
  <defs
     id="defs4" />
  <sodipodi:namedview
     id="base"
     pagecolor="#ffffff"
     bordercolor="#666666"
     borderopacity="1.0"
     inkscape:pageopacity="0.0"
     inkscape:pageshadow="2"
     inkscape:zoom="1.979899"
     inkscape:cx="57.439238"
     inkscape:cy="192.73719"
     inkscape:document-units="px"
     inkscape:current-layer="layer1"
     showgrid="false"
     units="px"
     inkscape:window-width="1920"
     inkscape:window-height="1136"
     inkscape:window-x="1920"
     inkscape:window-y="27"
     inkscape:window-maximized="1" />
  <metadata
     id="metadata7">
    <rdf:RDF>
      <cc:Work
         rdf:about="">
        <dc:format>image/svg+xml</dc:format>
        <dc:type
           rdf:resource="http://purl.org/dc/dcmitype/StillImage" />
        <dc:title></dc:title>
      </cc:Work>
    </rdf:RDF>
  </metadata>
  <g
     inkscape:label="Layer 1"
     inkscape:groupmode="layer"
     id="layer1"
     transform="translate(0,-702.36216)">
    <g
       id="g3385"
       transform="translate(-156.42857,4.2857142)" />
    <path
       style="fill:#e9c6af"
       d="m 153.22635,1030.8979 c -3.11471,-12.7875 -5.9503,-25.4084 -6.30131,-28.0465 -0.50662,-3.8075 -1.72447,-6.1216 -5.907,-11.2243 -2.91672,-3.5583 -6.01212,-8.6657 -6.93387,-11.4408 -1.59084,-4.78956 -5.36649,-9.03839 -8.03181,-9.03839 -0.68714,0 -4.87705,-1.81572 -9.31091,-4.03494 -16.26538,-8.14108 -25.018297,-24.38441 -25.488667,-47.30091 -0.17642,-8.59517 -0.10286,-8.9034 2.70066,-11.31559 2.45056,-2.10851 3.49851,-2.37887 6.999997,-1.80593 5.48126,0.89688 16.18489,5.47917 23.03635,9.862 5.21115,3.33354 10.58163,5.49608 10.58163,4.26093 0,-0.30318 -1.54553,-4.96447 -3.43451,-10.3584 -7.28556,-20.80372 -10.31151,-33.78295 -11.49837,-49.31995 -0.69822,-9.14027 -1.26217,-11.42503 -4.31959,-17.5 -7.83284,-15.56354 -9.65015,-28.28353 -5.60049,-39.1997 1.71987,-4.63603 3.85869,-7.48931 10.75,-14.34099 9.86221,-9.80548 17.64378,-15.13531 36.50957,-25.00646 30.33798,-15.87375 56.85319,-21.57537 74.59339,-16.03997 15.50433,4.83774 30.08532,18.28128 41.76613,38.50795 1.93494,3.35058 4.05385,6.76696 4.70868,7.59196 1.59531,2.00988 7.47074,17.83847 11.87811,32 1.96847,6.325 6.49154,17.25722 10.05126,24.29383 6.96701,13.77189 7.76511,16.60874 10.04536,35.70617 2.4928,20.87768 2.83917,30.78721 1.50298,43 -0.69202,6.325 -1.52693,26.40922 -1.85536,44.6316 l -0.59716,33.13159 -3.86423,5.6074 c -4.70697,6.8304 -8.04333,8.9913 -17.12962,11.0947 -3.84662,0.8904 -9.38051,2.9659 -12.29754,4.6122 -5.08732,2.8711 -5.54534,2.9494 -11.22646,1.9192 -3.25752,-0.5907 -7.39862,-1.6777 -9.20245,-2.4156 -1.80384,-0.7378 -4.33082,-1.663 -5.61553,-2.056 -2.15092,-0.6578 -2.24348,-0.5418 -1.16932,1.4653 1.62361,3.0337 8.59386,5.9614 14.25515,5.9876 3.61376,0.017 4.75,0.3927 4.75,1.5716 0,2.3139 -2.79409,7.3091 -7.38367,13.2004 l -4.08999,5.25 -21.20601,0 c -24.3926,0 -21.36456,0.9132 -39.32033,-11.8582 -16.54875,-11.7706 -26.09263,-20.1071 -41.36717,-36.1339 -2.67695,-2.8088 -5.07263,-4.9015 -5.32374,-4.6503 -1.91979,1.9197 13.76818,19.5427 27.69091,31.1063 4.125,3.4261 12.67199,9.6732 18.99332,13.8826 l 11.49331,7.6535 -24.0843,0 -24.0843,0 -5.6631,-23.25 z"
       id="path3483"
       inkscape:connector-curvature="0" />
    <path
       style="fill:#f9f9f9;fill-rule:evenodd;stroke:none;stroke-width:1px;stroke-linecap:butt;stroke-linejoin:miter;stroke-opacity:1"
       d="m 223.92857,1060.2194 c -17.99125,-6.1379 -73.57143,-52.1429 -90.71429,-75.35724 -11.59323,-15.69918 3.57143,83.21434 3.57143,83.21434 0,0 113.42642,1.1097 87.14286,-7.8571 z"
       id="path3753"
       inkscape:connector-curvature="0"
       sodipodi:nodetypes="sscs" />
    <path
       style="fill:#fcfcfc"
       d="m 210.57142,1016.2766 c 0,-0.4792 -4.39705,-3.183 -9.77122,-6.0084 -8.53898,-4.4893 -15.81272,-9.8065 -30.47424,-22.277 -6.02647,-5.1258 -5.49843,-2.4747 0.82818,4.158 11.80099,12.3722 25.38293,21.6071 35.17143,23.9147 2.06022,0.4857 3.85835,0.9283 3.99585,0.9835 0.1375,0.055 0.25,-0.2916 0.25,-0.7708 z"
       id="path3481"
       inkscape:connector-curvature="0" />
    <path
       style="fill:#fcfcfc"
       d="m 287.59144,994.6375 c 2.58842,-1.3385 4.97998,-4.2111 4.97998,-5.9816 0,-0.3428 -2.24954,0.6401 -4.99898,2.1843 -6.88205,3.8653 -6.86458,7.357 0.019,3.7973 z"
       id="path3479"
       inkscape:connector-curvature="0" />
    <path
       style="fill:#fcfcfc"
       d="m 140.11687,969.69336 c 2.80848,-2.80848 3.09454,-6.07797 0.97551,-11.14954 -1.95265,-4.67333 -3.55873,-3.57843 -2.20277,1.50168 0.9493,3.55657 0.78763,4.34411 -1.64697,8.02304 -2.12306,3.20817 -2.36652,4.07937 -1.13995,4.07937 0.8578,0 2.66418,-1.10455 4.01418,-2.45455 z"
       id="path3477"
       inkscape:connector-curvature="0" />
    <path
       style="fill:#fcfcfc"
       d="m 271.22591,961.65787 c 5.78385,-1.71761 7.1864,-3.04252 11.16282,-10.54489 3.60306,-6.79794 5.15765,-11.50929 6.10765,-18.50986 l 0.74028,-5.45521 -4.44351,0 c -2.75715,0 -7.72215,1.32354 -13.08262,3.48749 -4.75151,1.91812 -12.46411,4.61496 -17.13911,5.99299 -10.55991,3.11269 -15.7255,5.3618 -16.40971,7.14483 -0.93115,2.42653 3.00925,1.55249 18.20109,-4.03726 21.616,-7.95349 25.9991,-9.19757 27.41524,-7.78143 2.03382,2.03382 -3.77533,6.81281 -12.94972,10.65328 -15.71485,6.57837 -28.46636,8.59855 -33.49149,5.30596 -2.23291,-1.46306 -2.73036,-1.47871 -4.63344,-0.14574 -6.59876,4.62195 3.30511,11.60489 18.99757,13.39465 4.48132,0.51111 8.38544,1.16687 8.67582,1.45726 0.96988,0.96988 5.77988,0.54334 10.84913,-0.96207 z"
       id="path3475"
       inkscape:connector-curvature="0" />
    <path
       style="fill:#fcfcfc"
       d="m 128.4052,955.82213 c 1.68625,-3.53488 0.97155,-4.35171 -1.99162,-2.27622 -1.25794,0.8811 -3.552,1.602 -5.09791,1.602 -4.17587,0 -12.24697,-4.48148 -15.3147,-8.50348 -3.39627,-4.45274 -6.349827,-16.57407 -6.395397,-26.24652 -0.0188,-3.9875 -0.39415,-7.25 -0.83415,-7.25 -6.31308,0 -2.16255,27.94889 5.503477,37.05945 4.16544,4.95035 13.12647,8.95851 19.28942,8.62791 2.75559,-0.14781 3.77744,-0.78385 4.84088,-3.01314 z"
       id="path3473"
       inkscape:connector-curvature="0" />
    <path
       style="fill:#fcfcfc"
       d="m 217.55545,947.58634 c -0.53484,-3.26614 -0.98874,-8.41343 -1.00865,-11.43843 -0.0306,-4.65748 -0.21345,-5.1942 -1.19329,-3.50375 -1.69157,2.91836 -1.35497,13.39102 0.57555,17.90729 2.24061,5.24167 2.80254,4.21721 1.62639,-2.96511 z"
       id="path3471"
       inkscape:connector-curvature="0" />
    <path
       style="fill:#fcfcfc"
       d="m 120.34225,948.96041 c -0.21771,-0.65313 -1.71771,-1.61355 -3.33333,-2.13427 -6.1449,-1.98054 -6.77016,-4.49167 -3.49136,-14.02168 1.63051,-4.73918 1.70922,-5.65655 0.4853,-5.65655 -0.80346,0 -2.37865,1.4625 -3.50043,3.25 -2.649,4.22106 -2.3474,14.52742 0.51777,17.6934 2.08424,2.30306 10.04752,3.04549 9.32205,0.8691 z"
       id="path3469"
       inkscape:connector-curvature="0" />
    <path
       style="fill:#fcfcfc"
       d="m 300.58346,908.19809 c -0.85487,-3.56348 -2.55084,-6.54538 -5.74039,-10.09294 -5.17181,-5.75229 -6.78157,-5.83728 -3.02431,-0.15966 1.39702,2.11102 3.96733,6.66571 5.71182,10.12151 1.74449,3.45581 3.41804,6.03705 3.71901,5.73608 0.30096,-0.30097 10e-4,-2.82321 -0.66613,-5.60499 z"
       id="path3467"
       inkscape:connector-curvature="0" />
    <path
       style="fill:#fcfcfc"
       d="m 255.3848,904.57147 c 2.82409,-0.88038 -0.17967,-2.42356 -4.71741,-2.42356 -3.5397,0 -5.26443,0.52866 -6.62326,2.03016 -1.83127,2.02352 -1.81789,2.02815 4.09501,1.4165 3.26275,-0.33752 6.5233,-0.79791 7.24566,-1.0231 z"
       id="path3465"
       inkscape:connector-curvature="0" />
    <path
       style="fill:#fcfcfc"
       d="m 226.0363,899.76228 c -0.79847,-5.32457 0.33461,-7.70929 5.04671,-10.62154 4.83055,-2.98544 6.48841,-6.64891 6.48841,-14.33783 0,-8.43071 -6.5295,-29.655 -9.12314,-29.655 -1.22765,0 -1.17641,0.40421 1.62314,12.80607 1.40016,6.20265 2.5,14.21844 2.5,18.22044 l 0,7.14558 -5.63081,5.32472 c -5.01307,4.74056 -5.55417,5.63619 -4.93227,8.16395 0.72462,2.94532 3.20763,7.33924 4.14741,7.33924 0.29602,0 0.24227,-1.97353 -0.11945,-4.38563 z"
       id="path3463"
       inkscape:connector-curvature="0" />
    <path
       style="fill:#fcfcfc"
       d="m 278.99999,894.57648 c 1.90949,-1.90949 2.02975,-3.42857 0.27143,-3.42857 -1.67231,0 -3.7,2.02769 -3.7,3.7 0,1.75832 1.51908,1.63806 3.42857,-0.27143 z"
       id="path3461"
       inkscape:connector-curvature="0" />
    <path
       style="fill:#fcfcfc"
       d="m 285.38784,885.49681 c -0.33021,-2.76663 -4.77955,-6.86119 -6.74409,-6.20634 -1.28195,0.42731 4.5053,8.85744 6.0806,8.85744 0.53895,0 0.83752,-1.193 0.66349,-2.6511 z"
       id="path3459"
       inkscape:connector-curvature="0" />
    <path
       style="fill:#fcfcfc"
       d="m 198.84662,869.878 c 6.85275,-3.60199 14.7248,-10.64021 14.7248,-13.16511 0,-4.21031 -13.99572,-13.53343 -20.34887,-13.55521 -4.14699,-0.0142 -8.72438,2.46689 -13.40971,7.26857 -4.28136,4.38766 -11.24142,15.15282 -11.24142,17.38715 0,1.76088 5.35886,4.38169 10.90296,5.33223 6.80256,1.1663 12.89033,0.13944 19.37224,-3.26763 z"
       id="path3457"
       inkscape:connector-curvature="0" />
    <path
       style="fill:#fcfcfc"
       d="m 175.82142,869.02913 c -1.7875,-0.51612 -3.25,-1.49179 -3.25,-2.16815 0,-2.21298 8.04867,-13.60758 11.79041,-16.69184 2.01146,-1.65802 5.08542,-3.28251 6.83101,-3.60999 3.94211,-0.73954 10.51883,2.01698 15.73112,6.59343 l 3.75093,3.29336 -3.2479,3.35099 c -4.11363,4.24418 -5.4697,4.22136 -6.28146,-0.10569 -0.68918,-3.67365 -4.60447,-7.54333 -7.63224,-7.54333 -0.98363,0 -3.17295,1.165 -4.86514,2.58889 -4.21123,3.54352 -4.17037,7.68754 0.11944,12.1135 l 3.19616,3.29761 -6.44616,-0.0902 c -3.54539,-0.0496 -7.90867,-0.51247 -9.69617,-1.02859 z"
       id="path3455"
       inkscape:connector-curvature="0" />
    <path
       style="fill:#fcfcfc"
       d="m 269.66505,872.32287 c -1.14995,-2.14871 -22.47758,-26.67618 -24.03063,-27.63602 -2.53589,-1.56727 -0.65461,2.48448 4.16074,8.96106 8.72058,11.72906 23.67423,25.78343 19.86989,18.67496 z"
       id="path3453"
       inkscape:connector-curvature="0" />
    <path
       style="fill:#fcfcfc"
       d="m 157.07142,844.38626 c 3.45787,-5.44593 11.55743,-10.09179 22.5,-12.90585 6.65139,-1.71052 21.34264,-2.27832 26.22336,-1.01351 2.2144,0.57385 2.61185,0.41514 2.12667,-0.84922 -1.24301,-3.23921 -18.05943,-9.46977 -25.55913,-9.46977 -5.32247,0 -16.8907,6.07896 -22.8737,12.01983 -4.15588,4.12662 -7.9172,11.5656 -7.9172,15.65831 0,2.74572 2.60832,1.11444 5.5,-3.43979 z"
       id="path3451"
       inkscape:connector-curvature="0" />
    <path
       style="fill:#fcfcfc"
       d="m 274.1987,844.03084 c 5.23121,-2.4621 11.37272,-8.37717 11.37272,-10.95341 0,-2.38459 -7.27705,-10.50431 -11.26013,-12.56404 -3.81558,-1.97311 -11.72413,-1.9421 -15.59802,0.0612 -3.56911,1.84566 -9.11816,10.73339 -9.13247,14.62718 -0.012,3.25647 5.41627,8.61989 10.61539,10.48864 4.39339,1.57914 8.03942,1.14702 14.00251,-1.65954 z"
       id="path3449"
       inkscape:connector-curvature="0" />
    <path
       style="fill:#fcfcfc"
       d="m 256.61337,840.06334 c -3.85918,-2.79558 -4.19889,-3.38075 -3.62585,-6.24595 0.34776,-1.73876 1.90248,-4.7382 3.45494,-6.66543 6.43526,-7.98873 16.52138,-6.91145 23.72586,2.53411 l 2.73008,3.57931 -2.07082,2.07081 -2.07081,2.07082 -1.61349,-3.12013 c -3.36453,-6.50628 -9.1788,-7.39364 -12.97095,-1.97958 -2.1872,3.12267 -2.00865,5.77769 0.5734,8.52616 l 2.17432,2.31445 -3.02428,0 c -1.79176,0 -4.75963,-1.25709 -7.2824,-3.08457 z"
       id="path3447"
       inkscape:connector-curvature="0" />
    <path
       style="fill:#fcfcfc"
       d="m 246.29404,815.89791 c 4.94929,-6.87028 11.33165,-12.60531 16.02123,-14.39628 3.68374,-1.40683 5.16447,-1.48755 9.39101,-0.51195 6.14292,1.41796 6.86514,1.43225 6.86514,0.13589 0,-2.01094 -8.03173,-9.68822 -12.01431,-11.48411 -3.7705,-1.70026 -4.29438,-1.71677 -7.40513,-0.23336 -10.3369,4.92933 -20.4155,19.92128 -18.8606,28.05522 0.72556,3.79553 2.46804,3.34112 6.00266,-1.56541 z"
       id="path3445"
       inkscape:connector-curvature="0" />
    <path
       style="fill:#030303"
       d="m -60.428579,1025.3649 0,-28.7829 10.75,-7.1344 c 31.70358,-21.04056 61.74719,-32.94127 99.22953,-39.30623 6.86374,-1.16555 12.65773,-2.29738 12.87553,-2.51519 0.46577,-0.46577 -10.59262,-25.86738 -15.662859,-35.97827 -4.55302,-9.07946 -6.11381,-16.56427 -6.15707,-29.52623 -0.0483,-14.48833 1.42986,-24.95504 5.54219,-39.24239 4.062959,-14.11583 9.441489,-25.92047 18.636189,-40.90219 14.00985,-22.82746 35.032362,-46.70312 49.305019,-55.99665 22.68958,-14.77414 41.52089,-19.34197 79.48147,-19.27951 21.68651,0.0357 22.82405,0.13689 31.46277,2.79927 13.29293,4.09678 22.00056,9.00422 29.53723,16.64657 10.24397,10.38762 20.38876,29.25516 25.00295,46.50113 1.17723,4.4 3.45108,9.97897 5.053,12.3977 4.09695,6.18594 8.67193,18.56674 10.27557,27.80768 1.12979,6.51037 2.06003,8.77137 5.45342,13.25481 4.81149,6.35708 9.82549,17.79387 11.83374,26.99239 0.78619,3.60108 1.85627,15.09742 2.37795,25.54742 1.47737,29.59369 0.8908,27.82729 9.62552,28.98642 9.46857,1.25652 15.99507,2.71756 26.87785,6.01696 6.05,1.83421 13.32874,3.80932 16.17497,4.38913 10.65326,2.17018 29.70313,9.79242 58.57503,23.43707 l 11.75,5.55296 0,43.55865 0,43.5588 -76,0 c -60.79831,0 -76,-0.2542 -76,-1.2709 0,-0.6989 1.31449,-6.6595 2.92108,-13.2456 1.60659,-6.5861 2.76496,-12.1308 2.57415,-12.3216 -0.85307,-0.8531 -11.6838,3.0962 -14.0331,5.117 -1.43451,1.2339 -4.71284,5.361 -7.28517,9.1712 -4.42434,6.5536 -11.55443,13.5057 -12.6884,12.3718 -0.28628,-0.2863 1.225,-2.7259 3.3584,-5.4212 4.35051,-5.4965 7.15304,-10.5315 7.15304,-12.8511 0,-1.1789 -1.13624,-1.5549 -4.75,-1.5716 -5.66129,-0.026 -12.63154,-2.9539 -14.25515,-5.9876 -1.07416,-2.0071 -0.9816,-2.1231 1.16932,-1.4653 1.28471,0.393 3.81169,1.3182 5.61553,2.056 1.80383,0.7379 5.94493,1.8249 9.20245,2.4156 5.68112,1.0302 6.13914,0.9519 11.22646,-1.9192 2.91703,-1.6463 8.45092,-3.7218 12.29754,-4.6122 9.08629,-2.1034 12.42265,-4.2643 17.12962,-11.0947 l 3.86423,-5.6074 0.59716,-33.13159 c 0.32843,-18.22238 1.16334,-38.3066 1.85536,-44.6316 1.33619,-12.21279 0.98982,-22.12232 -1.50298,-43 -2.28025,-19.09743 -3.07835,-21.93428 -10.04536,-35.70617 -3.55972,-7.03661 -8.08279,-17.96883 -10.05126,-24.29383 -4.40737,-14.16153 -10.2828,-29.99012 -11.87811,-32 -0.65483,-0.825 -2.77374,-4.24138 -4.70868,-7.59196 -11.68081,-20.22667 -26.2618,-33.67021 -41.76613,-38.50795 -17.7402,-5.5354 -44.25541,0.16622 -74.59339,16.03997 -18.86579,9.87115 -26.64736,15.20098 -36.50957,25.00646 -6.89131,6.85168 -9.03013,9.70496 -10.75,14.34099 -4.04966,10.91617 -2.23235,23.63616 5.60049,39.1997 3.05742,6.07497 3.62137,8.35973 4.31959,17.5 1.18686,15.537 4.21281,28.51623 11.49837,49.31995 1.88898,5.39393 3.43451,10.05522 3.43451,10.3584 0,1.23515 -5.37048,-0.92739 -10.58163,-4.26093 -6.85146,-4.38283 -17.55509,-8.96512 -23.03635,-9.862 -3.501487,-0.57294 -4.549437,-0.30258 -6.999997,1.80593 -2.80352,2.41219 -2.87708,2.72042 -2.70066,11.31559 0.47037,22.9165 9.223287,39.15983 25.488667,47.30091 4.43386,2.21922 8.62377,4.03494 9.31091,4.03494 2.66532,0 6.44097,4.24883 8.03181,9.03839 0.92253,2.7775 4.01857,7.8843 6.94257,11.4515 4.31997,5.2703 5.40104,7.3696 5.9583,11.5705 0.37444,2.8226 3.13311,15.1012 6.13039,27.2858 2.99728,12.1846 5.45103,22.4913 5.45279,22.9038 0.002,0.4125 -49.2718,0.75 -109.496798,0.75 l -109.500001,0 0,-28.783 z"
       id="path3711"
       inkscape:connector-curvature="0" />
    <path
       style="fill:#030303"
       d="m 195.56474,1046.4944 c -6.32133,-4.2094 -14.86832,-10.4565 -18.99332,-13.8826 -13.92273,-11.5636 -29.6107,-29.1866 -27.69091,-31.1063 0.25111,-0.2512 2.64679,1.8415 5.32374,4.6503 8.53352,8.9538 18.68414,18.6393 24.86717,23.7278 7.78573,6.4074 26.08327,19.4989 30.25,21.6431 3.97079,2.0435 4.07952,2.6212 0.49332,2.6212 -1.76764,0 -6.88026,-2.7459 -14.25,-7.6535 z"
       id="path3709"
       inkscape:connector-curvature="0" />
    <path
       style="fill:#030303"
       d="m 206.32557,1016.0639 c -9.7885,-2.3076 -23.37044,-11.5425 -35.17143,-23.9147 -6.32661,-6.6327 -6.85465,-9.2838 -0.82818,-4.158 14.66152,12.4705 21.93526,17.7877 30.47424,22.277 5.37417,2.8254 9.77122,5.5292 9.77122,6.0084 0,0.4792 -0.1125,0.8261 -0.25,0.7708 -0.1375,-0.055 -1.93563,-0.4978 -3.99585,-0.9835 z"
       id="path3707"
       inkscape:connector-curvature="0" />
    <path
       style="fill:#030303"
       d="m 282.57244,994.8979 c 5.6e-4,-0.6875 2.25056,-2.5135 5,-4.0577 2.74944,-1.5442 4.99898,-2.5271 4.99898,-2.1843 0,1.7705 -2.39156,4.6431 -4.97998,5.9816 -3.55388,1.8378 -5.02035,1.9139 -5.019,0.2604 z"
       id="path3705"
       inkscape:connector-curvature="0" />
    <path
       style="fill:#030303"
       d="m 137.24264,968.06854 c 2.4346,-3.67893 2.59627,-4.46647 1.64697,-8.02304 -0.6026,-2.25764 -0.67291,-4.17836 -0.16445,-4.4926 1.13419,-0.70097 3.84626,5.7215 3.84626,9.10835 0,2.84016 -4.01473,7.48666 -6.46873,7.48666 -1.22657,0 -0.98311,-0.8712 1.13995,-4.07937 z"
       id="path3703"
       inkscape:connector-curvature="0" />
    <path
       style="fill:#030303"
       d="m 260.37678,962.61994 c -0.29038,-0.29039 -4.1945,-0.94615 -8.67582,-1.45726 -15.69246,-1.78976 -25.59633,-8.7727 -18.99757,-13.39465 1.90308,-1.33297 2.40053,-1.31732 4.63344,0.14574 5.02513,3.29259 17.77664,1.27241 33.49149,-5.30596 9.17439,-3.84047 14.98354,-8.61946 12.94972,-10.65328 -1.41614,-1.41614 -5.79924,-0.17206 -27.41524,7.78143 -15.19184,5.58975 -19.13224,6.46379 -18.20109,4.03726 0.68421,-1.78303 5.8498,-4.03214 16.40971,-7.14483 4.675,-1.37803 12.3876,-4.07487 17.13911,-5.99299 5.36047,-2.16395 10.32547,-3.48749 13.08262,-3.48749 l 4.44351,0 -0.74028,5.45521 c -0.40716,3.00036 -1.29621,7.16286 -1.97567,9.25 -1.51942,4.66731 -6.45627,14.09252 -8.65295,16.51983 -2.64696,2.92486 -15.6547,6.08327 -17.49098,4.24699 z"
       id="path3701"
       inkscape:connector-curvature="0" />
    <path
       style="fill:#030303"
       d="m 117.57142,958.2361 c -5.02563,-1.58114 -10.81034,-5.07408 -13.29652,-8.02874 -6.106917,-7.25766 -11.297797,-32.06513 -7.503477,-35.85945 2.28057,-2.28057 2.80013,-1.17146 2.83415,6.05 0.0456,9.67245 2.999127,21.79378 6.395397,26.24652 3.06773,4.022 11.13883,8.50348 15.3147,8.50348 1.54591,0 3.83997,-0.7209 5.09791,-1.602 2.96317,-2.07549 3.67787,-1.25866 1.99162,2.27622 -1.06344,2.22929 -2.08529,2.86533 -4.84088,3.01314 -1.9211,0.10306 -4.6179,-0.16657 -5.9929,-0.59917 z"
       id="path3699"
       inkscape:connector-curvature="0" />
    <path
       style="fill:#030303"
       d="m 215.92906,950.55145 c -1.93052,-4.51627 -2.26712,-14.98893 -0.57555,-17.90729 0.97984,-1.69045 1.16264,-1.15373 1.19329,3.50375 0.0199,3.025 0.47381,8.17229 1.00865,11.43843 1.17615,7.18232 0.61422,8.20678 -1.62639,2.96511 z"
       id="path3697"
       inkscape:connector-curvature="0" />
    <path
       style="fill:#030303"
       d="m 111.0202,948.09131 c -2.86517,-3.16598 -3.16677,-13.47234 -0.51777,-17.6934 1.12178,-1.7875 2.69697,-3.25 3.50043,-3.25 1.22392,0 1.14521,0.91737 -0.4853,5.65655 -3.2788,9.53001 -2.65354,12.04114 3.49136,14.02168 4.51957,1.45668 4.40774,3.32177 -0.19918,3.32177 -2.69439,0 -4.51298,-0.64601 -5.78954,-2.0566 z"
       id="path3695"
       inkscape:connector-curvature="0" />
    <path
       style="fill:#030303"
       d="m 297.53058,908.067 c -1.74449,-3.4558 -4.3148,-8.01049 -5.71182,-10.12151 -3.75726,-5.67762 -2.1475,-5.59263 3.02431,0.15966 3.18955,3.54756 4.88552,6.52946 5.74039,10.09294 0.66734,2.78178 0.96709,5.30402 0.66613,5.60499 -0.30097,0.30097 -1.97452,-2.28027 -3.71901,-5.73608 z"
       id="path3693"
       inkscape:connector-curvature="0" />
    <path
       style="fill:#030303"
       d="m 244.04413,904.17807 c 1.35883,-1.5015 3.08356,-2.03016 6.62326,-2.03016 2.6323,0 5.06608,0.45318 5.4084,1.00706 0.78386,1.26833 -0.53603,1.67404 -7.93665,2.4396 -5.9129,0.61165 -5.92628,0.60702 -4.09501,-1.4165 z"
       id="path3691"
       inkscape:connector-curvature="0" />
    <path
       style="fill:#030303"
       d="m 224.1622,901.89791 c -0.80044,-1.2375 -1.76967,-3.52766 -2.15386,-5.08924 -0.6219,-2.52776 -0.0808,-3.42339 4.93227,-8.16395 l 5.63081,-5.32472 0,-7.14558 c 0,-4.002 -1.09984,-12.01779 -2.5,-18.22044 -2.79955,-12.40186 -2.85079,-12.80607 -1.62314,-12.80607 2.59364,0 9.12314,21.22429 9.12314,29.655 0,7.68892 -1.65786,11.35239 -6.48841,14.33783 -4.7121,2.91225 -5.84518,5.29697 -5.04671,10.62154 0.73632,4.91017 0.26667,5.44536 -1.8741,2.13563 z"
       id="path3689"
       inkscape:connector-curvature="0" />
    <path
       style="fill:#030303"
       d="m 275.57142,894.84791 c 0,-1.67231 2.02769,-3.7 3.7,-3.7 1.75832,0 1.63806,1.51908 -0.27143,3.42857 -1.90949,1.90949 -3.42857,2.02975 -3.42857,0.27143 z"
       id="path3687"
       inkscape:connector-curvature="0" />
    <path
       style="fill:#030303"
       d="m 280.62663,883.90834 c -3.43149,-4.6661 -2.50461,-6.22742 1.79842,-3.02941 2.57273,1.91205 4.26722,7.26898 2.2993,7.26898 -0.53895,0 -2.38292,-1.9078 -4.09772,-4.23957 z"
       id="path3685"
       inkscape:connector-curvature="0" />
    <path
       style="fill:#030303"
       d="m 179.47438,873.14563 c -5.5441,-0.95054 -10.90296,-3.57135 -10.90296,-5.33223 0,-2.23433 6.96006,-12.99949 11.24142,-17.38715 4.68533,-4.80168 9.26272,-7.28279 13.40971,-7.26857 6.35315,0.0218 20.34887,9.3449 20.34887,13.55521 0,2.5249 -7.87205,9.56312 -14.7248,13.16511 -6.48191,3.40707 -12.56968,4.43393 -19.37224,3.26763 z"
       id="path3683"
       inkscape:connector-curvature="0" />
    <path
       style="fill:#ffffff"
       d="m 188.76759,866.8503 c -4.28981,-4.42596 -4.33067,-8.56998 -0.11944,-12.1135 1.69219,-1.42389 3.88151,-2.58889 4.86514,-2.58889 3.02777,0 6.94306,3.86968 7.63224,7.54333 0.81176,4.32705 2.16783,4.34987 6.28146,0.10569 l 3.2479,-3.35099 -3.75093,-3.29336 c -5.21229,-4.57645 -11.78901,-7.33297 -15.73112,-6.59343 -1.74559,0.32748 -4.81955,1.95197 -6.83101,3.60999 -3.74174,3.08426 -11.79041,14.47886 -11.79041,16.69184 0,1.74899 5.43768,3.09169 12.94617,3.19674 l 6.44616,0.0902 -3.19616,-3.29761 z"
       id="path3681"
       inkscape:connector-curvature="0" />
    <path
       style="fill:#030303"
       d="m 261.6821,867.39791 c -7.32438,-7.39845 -17.08587,-19.99 -17.10107,-22.05902 -0.005,-0.71996 0.46874,-1.01338 1.05339,-0.65204 1.55305,0.95984 22.88068,25.48731 24.03063,27.63602 2.05481,3.83944 -1.44199,1.68214 -7.98295,-4.92496 z"
       id="path3679"
       inkscape:connector-curvature="0" />
    <path
       style="fill:#030303"
       d="m 151.57142,847.82605 c 0,-4.09271 3.76132,-11.53169 7.9172,-15.65831 5.983,-5.94087 17.55123,-12.01983 22.8737,-12.01983 7.4997,0 24.31612,6.23056 25.55913,9.46977 0.48518,1.26436 0.0877,1.42307 -2.12667,0.84922 -4.88072,-1.26481 -19.57197,-0.69701 -26.22336,1.01351 -10.94257,2.81406 -19.04213,7.45992 -22.5,12.90585 -2.89168,4.55423 -5.5,6.18551 -5.5,3.43979 z"
       id="path3677"
       inkscape:connector-curvature="0" />
    <path
       style="fill:#030303"
       d="m 260.19619,845.69038 c -5.19912,-1.86875 -10.62735,-7.23217 -10.61539,-10.48864 0.0143,-3.89379 5.56336,-12.78152 9.13247,-14.62718 3.87389,-2.00327 11.78244,-2.03428 15.59802,-0.0612 3.98308,2.05973 11.26013,10.17945 11.26013,12.56404 0,2.57624 -6.14151,8.49131 -11.37272,10.95341 -5.96309,2.80656 -9.60912,3.23868 -14.00251,1.65954 z"
       id="path3675"
       inkscape:connector-curvature="0" />
    <path
       style="fill:#ffffff"
       d="m 264.74573,840.83346 c -2.58205,-2.74847 -2.7606,-5.40349 -0.5734,-8.52616 3.79215,-5.41406 9.60642,-4.5267 12.97095,1.97958 l 1.61349,3.12013 2.07081,-2.07082 2.07082,-2.07081 -2.73008,-3.57931 c -7.20448,-9.44556 -17.2906,-10.52284 -23.72586,-2.53411 -1.55246,1.92723 -3.10718,4.92667 -3.45494,6.66543 -0.57304,2.8652 -0.23333,3.45037 3.62585,6.24595 2.52277,1.82748 5.49064,3.08457 7.2824,3.08457 l 3.02428,0 -2.17432,-2.31445 z"
       id="path3673"
       inkscape:connector-curvature="0" />
    <path
       style="fill:#030303"
       d="m 240.29138,817.46332 c -1.5549,-8.13394 8.5237,-23.12589 18.8606,-28.05522 3.11075,-1.48341 3.63463,-1.4669 7.40513,0.23336 3.98258,1.79589 12.01431,9.47317 12.01431,11.48411 0,1.29636 -0.72222,1.28207 -6.86514,-0.13589 -4.22654,-0.9756 -5.70727,-0.89488 -9.39101,0.51195 -4.68958,1.79097 -11.07194,7.526 -16.02123,14.39628 -3.53462,4.90653 -5.2771,5.36094 -6.00266,1.56541 z"
       id="path3671"
       inkscape:connector-curvature="0" />
    <path
       style="fill:#f9f9f9"
       d="m 262.30342,1050.6453 c 2.2506,-1.9265 5.90445,-6.3724 8.11967,-9.88 2.21522,-3.5075 5.25073,-7.3394 6.74559,-8.5153 2.49059,-1.9591 13.11562,-5.7451 13.87674,-4.9446 0.17913,0.1883 -1.08904,6.305 -2.81817,13.5925 l -3.14387,13.25 -13.43598,0 -13.43598,0 4.092,-3.5026 z"
       id="path3443"
       inkscape:connector-curvature="0" />
  </g>
</svg>
